<svg width="109" height="109" viewBox="0 0 109 109" fill="none" xmlns="http://www.w3.org/2000/svg">
<path fill-rule="evenodd" clip-rule="evenodd" d="M109 0H0V109H109V0ZM23.5349 60.9749C24.4709 63.1143 25.808 67.0589 26.2091 68.6634C28.148 67.5937 31.1566 66.9251 49.676 63.9834C49.4754 62.2451 49.2749 59.1697 49.3417 57.0971L37.9622 58.6628C43.1906 53.5878 48.2335 47.67 52.4171 41.6531L45.464 36.8394C44.1405 39.0961 42.6362 41.3485 41.0844 43.4905L34.0447 44.012C38.1705 38.8681 42.271 32.5577 45.3971 26.4097L37.3074 23C34.2989 30.6886 29.1509 38.7114 27.4126 40.784C25.7411 42.9234 24.5377 44.2606 23 44.6617C23.8691 46.8011 25.2063 50.6789 25.6074 52.3503C26.8118 51.7743 28.5905 51.3623 35.473 50.6004C32.9289 53.5731 30.7255 55.8322 29.552 56.8297C27.0783 59.1697 25.5406 60.5737 23.5349 60.9749ZM49.8097 70.8029C40.4497 72.4743 30.3543 74.2126 23.7354 75.0817L24.9389 83.0377C27.0149 82.6303 29.288 82.1891 31.6846 81.7238C37.5465 80.586 44.1474 79.3047 50.4114 78.0234L49.8097 70.8029ZM74.8811 48.3389H61.3091H56.3617H53.0189V73.4103C53.0189 81.8343 55.6931 84.2411 64.2509 84.2411H75.7503C83.6394 84.2411 85.9126 80.8314 86.8486 69.4657C84.6423 68.9977 81.1657 67.5937 79.2937 66.1897C78.8926 75.0817 78.3577 76.6863 75.1486 76.6863H65.2537C61.844 76.6863 61.3091 76.2183 61.3091 73.3434V55.9606H74.8811V59.1697H83.0377V26.8109H52.0829V34.7669H74.8811V48.3389Z" fill="black"/>
</svg>
